<mxfile host="app.diagrams.net" modified="2023-05-29T08:42:17.264Z" agent="Mozilla/5.0 (Windows NT 10.0; Win64; x64) AppleWebKit/537.36 (KHTML, like Gecko) Chrome/113.0.0.0 Safari/537.36" etag="a_uXmLaCeqZeAcLJzo-A" version="21.3.2" type="github">
  <diagram name="Page-1" id="lvOlhkeNu6vwg_yUwTIz">
    <mxGraphModel dx="1290" dy="541" grid="1" gridSize="10" guides="1" tooltips="1" connect="1" arrows="1" fold="1" page="1" pageScale="1" pageWidth="850" pageHeight="1100" math="0" shadow="0">
      <root>
        <mxCell id="0" />
        <mxCell id="1" parent="0" />
        <mxCell id="AsPf58GC5jO0iVtpWQX0-34" value="users" style="swimlane;whiteSpace=wrap;html=1;" parent="1" vertex="1">
          <mxGeometry x="40" y="330" width="200" height="490" as="geometry" />
        </mxCell>
        <mxCell id="AsPf58GC5jO0iVtpWQX0-35" value="&lt;b&gt;id&amp;nbsp; &lt;/b&gt;integer" style="text;html=1;strokeColor=none;fillColor=none;align=left;verticalAlign=middle;whiteSpace=wrap;rounded=0;" parent="AsPf58GC5jO0iVtpWQX0-34" vertex="1">
          <mxGeometry x="10" y="40" width="180" height="30" as="geometry" />
        </mxCell>
        <mxCell id="AsPf58GC5jO0iVtpWQX0-36" value="&lt;b&gt;email &lt;/b&gt;character varying" style="text;html=1;strokeColor=none;fillColor=none;align=left;verticalAlign=middle;whiteSpace=wrap;rounded=0;" parent="AsPf58GC5jO0iVtpWQX0-34" vertex="1">
          <mxGeometry x="10" y="70" width="180" height="30" as="geometry" />
        </mxCell>
        <mxCell id="AsPf58GC5jO0iVtpWQX0-37" value="&lt;b&gt;password &lt;/b&gt;character varying" style="text;html=1;strokeColor=none;fillColor=none;align=left;verticalAlign=middle;whiteSpace=wrap;rounded=0;" parent="AsPf58GC5jO0iVtpWQX0-34" vertex="1">
          <mxGeometry x="10" y="100" width="180" height="30" as="geometry" />
        </mxCell>
        <mxCell id="AsPf58GC5jO0iVtpWQX0-38" value="&lt;b&gt;role &lt;/b&gt;users_role_enum" style="text;html=1;strokeColor=none;fillColor=none;align=left;verticalAlign=middle;whiteSpace=wrap;rounded=0;" parent="AsPf58GC5jO0iVtpWQX0-34" vertex="1">
          <mxGeometry x="10" y="130" width="180" height="30" as="geometry" />
        </mxCell>
        <mxCell id="AsPf58GC5jO0iVtpWQX0-39" value="&lt;b&gt;firstname &lt;/b&gt;character varying" style="text;html=1;strokeColor=none;fillColor=none;align=left;verticalAlign=middle;whiteSpace=wrap;rounded=0;" parent="AsPf58GC5jO0iVtpWQX0-34" vertex="1">
          <mxGeometry x="10" y="161" width="180" height="30" as="geometry" />
        </mxCell>
        <mxCell id="AsPf58GC5jO0iVtpWQX0-40" value="&lt;b&gt;lastname &lt;/b&gt;character varying" style="text;html=1;strokeColor=none;fillColor=none;align=left;verticalAlign=middle;whiteSpace=wrap;rounded=0;" parent="AsPf58GC5jO0iVtpWQX0-34" vertex="1">
          <mxGeometry x="10" y="190" width="180" height="30" as="geometry" />
        </mxCell>
        <mxCell id="AsPf58GC5jO0iVtpWQX0-41" value="&lt;b&gt;birthday &lt;/b&gt;character varying" style="text;html=1;strokeColor=none;fillColor=none;align=left;verticalAlign=middle;whiteSpace=wrap;rounded=0;" parent="AsPf58GC5jO0iVtpWQX0-34" vertex="1">
          <mxGeometry x="10" y="220" width="180" height="30" as="geometry" />
        </mxCell>
        <mxCell id="AsPf58GC5jO0iVtpWQX0-42" value="&lt;b&gt;phone &lt;/b&gt;character varying" style="text;html=1;strokeColor=none;fillColor=none;align=left;verticalAlign=middle;whiteSpace=wrap;rounded=0;" parent="AsPf58GC5jO0iVtpWQX0-34" vertex="1">
          <mxGeometry x="10" y="250" width="180" height="30" as="geometry" />
        </mxCell>
        <mxCell id="AsPf58GC5jO0iVtpWQX0-43" value="&lt;b&gt;adress &lt;/b&gt;character varying" style="text;html=1;strokeColor=none;fillColor=none;align=left;verticalAlign=middle;whiteSpace=wrap;rounded=0;" parent="AsPf58GC5jO0iVtpWQX0-34" vertex="1">
          <mxGeometry x="10" y="280" width="180" height="30" as="geometry" />
        </mxCell>
        <mxCell id="AsPf58GC5jO0iVtpWQX0-44" value="&lt;b&gt;job &lt;/b&gt;character varying" style="text;html=1;strokeColor=none;fillColor=none;align=left;verticalAlign=middle;whiteSpace=wrap;rounded=0;" parent="AsPf58GC5jO0iVtpWQX0-34" vertex="1">
          <mxGeometry x="10" y="310" width="180" height="30" as="geometry" />
        </mxCell>
        <mxCell id="AsPf58GC5jO0iVtpWQX0-45" value="&lt;b&gt;father &lt;/b&gt;character varying" style="text;html=1;strokeColor=none;fillColor=none;align=left;verticalAlign=middle;whiteSpace=wrap;rounded=0;" parent="AsPf58GC5jO0iVtpWQX0-34" vertex="1">
          <mxGeometry x="10" y="340" width="180" height="30" as="geometry" />
        </mxCell>
        <mxCell id="AsPf58GC5jO0iVtpWQX0-46" value="&lt;b&gt;mother &lt;/b&gt;character varying" style="text;html=1;strokeColor=none;fillColor=none;align=left;verticalAlign=middle;whiteSpace=wrap;rounded=0;" parent="AsPf58GC5jO0iVtpWQX0-34" vertex="1">
          <mxGeometry x="10" y="370" width="180" height="30" as="geometry" />
        </mxCell>
        <mxCell id="AsPf58GC5jO0iVtpWQX0-47" value="&lt;b&gt;myself &lt;/b&gt;character varying" style="text;html=1;strokeColor=none;fillColor=none;align=left;verticalAlign=middle;whiteSpace=wrap;rounded=0;" parent="AsPf58GC5jO0iVtpWQX0-34" vertex="1">
          <mxGeometry x="10" y="400" width="180" height="30" as="geometry" />
        </mxCell>
        <mxCell id="AsPf58GC5jO0iVtpWQX0-48" value="&lt;b&gt;travel &lt;/b&gt;character varying" style="text;html=1;strokeColor=none;fillColor=none;align=left;verticalAlign=middle;whiteSpace=wrap;rounded=0;" parent="AsPf58GC5jO0iVtpWQX0-34" vertex="1">
          <mxGeometry x="10" y="430" width="180" height="30" as="geometry" />
        </mxCell>
        <mxCell id="AsPf58GC5jO0iVtpWQX0-49" value="&lt;b&gt;anecdote &lt;/b&gt;character varying" style="text;html=1;strokeColor=none;fillColor=none;align=left;verticalAlign=middle;whiteSpace=wrap;rounded=0;" parent="AsPf58GC5jO0iVtpWQX0-34" vertex="1">
          <mxGeometry x="10" y="460" width="180" height="30" as="geometry" />
        </mxCell>
        <mxCell id="AsPf58GC5jO0iVtpWQX0-50" value="albums" style="swimlane;whiteSpace=wrap;html=1;" parent="1" vertex="1">
          <mxGeometry x="520" y="235" width="200" height="100" as="geometry" />
        </mxCell>
        <mxCell id="AsPf58GC5jO0iVtpWQX0-51" value="&lt;b&gt;id&amp;nbsp; &lt;/b&gt;integer" style="text;html=1;strokeColor=none;fillColor=none;align=left;verticalAlign=middle;whiteSpace=wrap;rounded=0;" parent="AsPf58GC5jO0iVtpWQX0-50" vertex="1">
          <mxGeometry x="10" y="30" width="180" height="30" as="geometry" />
        </mxCell>
        <mxCell id="AsPf58GC5jO0iVtpWQX0-52" value="&lt;b&gt;name&amp;nbsp;&lt;/b&gt;character varying" style="text;html=1;strokeColor=none;fillColor=none;align=left;verticalAlign=middle;whiteSpace=wrap;rounded=0;" parent="AsPf58GC5jO0iVtpWQX0-50" vertex="1">
          <mxGeometry x="10" y="60" width="180" height="30" as="geometry" />
        </mxCell>
        <mxCell id="AsPf58GC5jO0iVtpWQX0-58" value="photos" style="swimlane;whiteSpace=wrap;html=1;" parent="1" vertex="1">
          <mxGeometry x="520" y="435" width="200" height="220" as="geometry" />
        </mxCell>
        <mxCell id="AsPf58GC5jO0iVtpWQX0-59" value="&lt;b&gt;id&amp;nbsp; &lt;/b&gt;integer" style="text;html=1;strokeColor=none;fillColor=none;align=left;verticalAlign=middle;whiteSpace=wrap;rounded=0;" parent="AsPf58GC5jO0iVtpWQX0-58" vertex="1">
          <mxGeometry x="10" y="30" width="180" height="30" as="geometry" />
        </mxCell>
        <mxCell id="AsPf58GC5jO0iVtpWQX0-60" value="&lt;b&gt;photo&amp;nbsp;&lt;/b&gt;character varying" style="text;html=1;strokeColor=none;fillColor=none;align=left;verticalAlign=middle;whiteSpace=wrap;rounded=0;" parent="AsPf58GC5jO0iVtpWQX0-58" vertex="1">
          <mxGeometry x="10" y="60" width="180" height="30" as="geometry" />
        </mxCell>
        <mxCell id="AsPf58GC5jO0iVtpWQX0-62" value="&lt;b&gt;information&amp;nbsp;&lt;/b&gt;character varying" style="text;html=1;strokeColor=none;fillColor=none;align=left;verticalAlign=middle;whiteSpace=wrap;rounded=0;" parent="AsPf58GC5jO0iVtpWQX0-58" vertex="1">
          <mxGeometry x="10" y="90" width="180" height="30" as="geometry" />
        </mxCell>
        <mxCell id="AsPf58GC5jO0iVtpWQX0-63" value="&lt;b&gt;mimeType&amp;nbsp;&lt;/b&gt;character varying" style="text;html=1;strokeColor=none;fillColor=none;align=left;verticalAlign=middle;whiteSpace=wrap;rounded=0;" parent="AsPf58GC5jO0iVtpWQX0-58" vertex="1">
          <mxGeometry x="10" y="120" width="180" height="30" as="geometry" />
        </mxCell>
        <mxCell id="AsPf58GC5jO0iVtpWQX0-64" value="&lt;b&gt;userId&amp;nbsp;&lt;/b&gt;integer" style="text;html=1;strokeColor=none;fillColor=none;align=left;verticalAlign=middle;whiteSpace=wrap;rounded=0;" parent="AsPf58GC5jO0iVtpWQX0-58" vertex="1">
          <mxGeometry x="10" y="150" width="180" height="30" as="geometry" />
        </mxCell>
        <mxCell id="AsPf58GC5jO0iVtpWQX0-65" value="&lt;b&gt;albumId&amp;nbsp;&lt;/b&gt;integer" style="text;html=1;strokeColor=none;fillColor=none;align=left;verticalAlign=middle;whiteSpace=wrap;rounded=0;" parent="AsPf58GC5jO0iVtpWQX0-58" vertex="1">
          <mxGeometry x="10" y="180" width="180" height="30" as="geometry" />
        </mxCell>
        <mxCell id="AsPf58GC5jO0iVtpWQX0-66" value="commentaries" style="swimlane;whiteSpace=wrap;html=1;" parent="1" vertex="1">
          <mxGeometry x="520" y="755" width="200" height="160" as="geometry" />
        </mxCell>
        <mxCell id="AsPf58GC5jO0iVtpWQX0-67" value="&lt;b&gt;id&amp;nbsp; &lt;/b&gt;integer" style="text;html=1;strokeColor=none;fillColor=none;align=left;verticalAlign=middle;whiteSpace=wrap;rounded=0;" parent="AsPf58GC5jO0iVtpWQX0-66" vertex="1">
          <mxGeometry x="10" y="30" width="180" height="30" as="geometry" />
        </mxCell>
        <mxCell id="AsPf58GC5jO0iVtpWQX0-68" value="&lt;b&gt;commentary&amp;nbsp;&lt;/b&gt;character varying" style="text;html=1;strokeColor=none;fillColor=none;align=left;verticalAlign=middle;whiteSpace=wrap;rounded=0;" parent="AsPf58GC5jO0iVtpWQX0-66" vertex="1">
          <mxGeometry x="10" y="60" width="180" height="30" as="geometry" />
        </mxCell>
        <mxCell id="AsPf58GC5jO0iVtpWQX0-71" value="&lt;b&gt;userId&amp;nbsp;&lt;/b&gt;integer" style="text;html=1;strokeColor=none;fillColor=none;align=left;verticalAlign=middle;whiteSpace=wrap;rounded=0;" parent="AsPf58GC5jO0iVtpWQX0-66" vertex="1">
          <mxGeometry x="10" y="90" width="180" height="30" as="geometry" />
        </mxCell>
        <mxCell id="AsPf58GC5jO0iVtpWQX0-72" value="&lt;b&gt;photoId&amp;nbsp;&lt;/b&gt;integer" style="text;html=1;strokeColor=none;fillColor=none;align=left;verticalAlign=middle;whiteSpace=wrap;rounded=0;" parent="AsPf58GC5jO0iVtpWQX0-66" vertex="1">
          <mxGeometry x="10" y="120" width="180" height="30" as="geometry" />
        </mxCell>
        <mxCell id="AsPf58GC5jO0iVtpWQX0-74" value="" style="fontSize=12;html=1;endArrow=ERoneToMany;rounded=0;" parent="1" edge="1">
          <mxGeometry width="100" height="100" relative="1" as="geometry">
            <mxPoint x="240" y="410" as="sourcePoint" />
            <mxPoint x="520" y="480" as="targetPoint" />
            <Array as="points">
              <mxPoint x="320" y="410" />
              <mxPoint x="320" y="480" />
            </Array>
          </mxGeometry>
        </mxCell>
        <mxCell id="AsPf58GC5jO0iVtpWQX0-75" value="" style="fontSize=12;html=1;endArrow=ERmany;startArrow=ERmany;rounded=0;entryX=0;entryY=0.5;entryDx=0;entryDy=0;" parent="1" target="AsPf58GC5jO0iVtpWQX0-50" edge="1">
          <mxGeometry width="100" height="100" relative="1" as="geometry">
            <mxPoint x="240" y="380" as="sourcePoint" />
            <mxPoint x="400.0000000000002" y="379.9999999999999" as="targetPoint" />
            <Array as="points">
              <mxPoint x="360" y="380" />
              <mxPoint x="360" y="285" />
            </Array>
          </mxGeometry>
        </mxCell>
        <mxCell id="AsPf58GC5jO0iVtpWQX0-76" value="" style="fontSize=12;html=1;endArrow=ERoneToMany;rounded=0;entryX=0;entryY=0.25;entryDx=0;entryDy=0;" parent="1" target="AsPf58GC5jO0iVtpWQX0-66" edge="1">
          <mxGeometry width="100" height="100" relative="1" as="geometry">
            <mxPoint x="240" y="440" as="sourcePoint" />
            <mxPoint x="400.0000000000002" y="890" as="targetPoint" />
            <Array as="points">
              <mxPoint x="280" y="440" />
              <mxPoint x="280" y="795" />
            </Array>
          </mxGeometry>
        </mxCell>
        <mxCell id="AsPf58GC5jO0iVtpWQX0-77" value="" style="fontSize=12;html=1;endArrow=ERoneToMany;rounded=0;" parent="1" edge="1">
          <mxGeometry width="100" height="100" relative="1" as="geometry">
            <mxPoint x="720" y="285" as="sourcePoint" />
            <mxPoint x="720" y="475" as="targetPoint" />
            <Array as="points">
              <mxPoint x="760" y="285" />
              <mxPoint x="760" y="475" />
            </Array>
          </mxGeometry>
        </mxCell>
        <mxCell id="AsPf58GC5jO0iVtpWQX0-78" value="" style="fontSize=12;html=1;endArrow=ERoneToMany;rounded=0;entryX=1;entryY=0.25;entryDx=0;entryDy=0;" parent="1" target="AsPf58GC5jO0iVtpWQX0-66" edge="1">
          <mxGeometry width="100" height="100" relative="1" as="geometry">
            <mxPoint x="720" y="500" as="sourcePoint" />
            <mxPoint x="740" y="605" as="targetPoint" />
            <Array as="points">
              <mxPoint x="760" y="500" />
              <mxPoint x="760" y="795" />
            </Array>
          </mxGeometry>
        </mxCell>
        <mxCell id="AsPf58GC5jO0iVtpWQX0-79" value="&lt;b&gt;&lt;font style=&quot;font-size: 15px;&quot;&gt;0...*&lt;/font&gt;&lt;/b&gt;" style="text;html=1;strokeColor=none;fillColor=none;align=left;verticalAlign=middle;whiteSpace=wrap;rounded=0;" parent="1" vertex="1">
          <mxGeometry x="250" y="356" width="40" height="30" as="geometry" />
        </mxCell>
        <mxCell id="AsPf58GC5jO0iVtpWQX0-80" value="&lt;b&gt;&lt;font style=&quot;font-size: 15px;&quot;&gt;0...*&lt;/font&gt;&lt;/b&gt;" style="text;html=1;strokeColor=none;fillColor=none;align=left;verticalAlign=middle;whiteSpace=wrap;rounded=0;" parent="1" vertex="1">
          <mxGeometry x="480" y="260" width="40" height="30" as="geometry" />
        </mxCell>
        <mxCell id="AsPf58GC5jO0iVtpWQX0-81" value="&lt;b&gt;&lt;font style=&quot;font-size: 15px;&quot;&gt;1...1&lt;/font&gt;&lt;/b&gt;" style="text;html=1;strokeColor=none;fillColor=none;align=left;verticalAlign=middle;whiteSpace=wrap;rounded=0;" parent="1" vertex="1">
          <mxGeometry x="250" y="386" width="40" height="30" as="geometry" />
        </mxCell>
        <mxCell id="AsPf58GC5jO0iVtpWQX0-82" value="&lt;b&gt;&lt;font style=&quot;font-size: 15px;&quot;&gt;0...*&lt;/font&gt;&lt;/b&gt;" style="text;html=1;strokeColor=none;fillColor=none;align=left;verticalAlign=middle;whiteSpace=wrap;rounded=0;" parent="1" vertex="1">
          <mxGeometry x="480" y="458" width="40" height="30" as="geometry" />
        </mxCell>
        <mxCell id="AsPf58GC5jO0iVtpWQX0-83" value="&lt;b&gt;&lt;font style=&quot;font-size: 15px;&quot;&gt;1...1&lt;/font&gt;&lt;/b&gt;" style="text;html=1;strokeColor=none;fillColor=none;align=left;verticalAlign=middle;whiteSpace=wrap;rounded=0;" parent="1" vertex="1">
          <mxGeometry x="250" y="416" width="40" height="30" as="geometry" />
        </mxCell>
        <mxCell id="AsPf58GC5jO0iVtpWQX0-84" value="&lt;b&gt;&lt;font style=&quot;font-size: 15px;&quot;&gt;0...*&lt;/font&gt;&lt;/b&gt;" style="text;html=1;strokeColor=none;fillColor=none;align=left;verticalAlign=middle;whiteSpace=wrap;rounded=0;" parent="1" vertex="1">
          <mxGeometry x="480" y="770" width="40" height="30" as="geometry" />
        </mxCell>
        <mxCell id="AsPf58GC5jO0iVtpWQX0-85" value="&lt;b&gt;&lt;font style=&quot;font-size: 15px;&quot;&gt;0...*&lt;/font&gt;&lt;/b&gt;" style="text;html=1;strokeColor=none;fillColor=none;align=left;verticalAlign=middle;whiteSpace=wrap;rounded=0;" parent="1" vertex="1">
          <mxGeometry x="720" y="446" width="40" height="30" as="geometry" />
        </mxCell>
        <mxCell id="AsPf58GC5jO0iVtpWQX0-86" value="&lt;b&gt;&lt;font style=&quot;font-size: 15px;&quot;&gt;0...*&lt;/font&gt;&lt;/b&gt;" style="text;html=1;strokeColor=none;fillColor=none;align=left;verticalAlign=middle;whiteSpace=wrap;rounded=0;" parent="1" vertex="1">
          <mxGeometry x="720" y="770" width="40" height="30" as="geometry" />
        </mxCell>
        <mxCell id="AsPf58GC5jO0iVtpWQX0-87" value="&lt;b&gt;&lt;font style=&quot;font-size: 15px;&quot;&gt;1...1&lt;/font&gt;&lt;/b&gt;" style="text;html=1;strokeColor=none;fillColor=none;align=left;verticalAlign=middle;whiteSpace=wrap;rounded=0;" parent="1" vertex="1">
          <mxGeometry x="720" y="260" width="40" height="30" as="geometry" />
        </mxCell>
        <mxCell id="AsPf58GC5jO0iVtpWQX0-88" value="&lt;b&gt;&lt;font style=&quot;font-size: 30px;&quot;&gt;ERD: Voyager dans le temps&lt;/font&gt;&lt;/b&gt;" style="text;html=1;strokeColor=none;fillColor=none;align=left;verticalAlign=middle;whiteSpace=wrap;rounded=0;" parent="1" vertex="1">
          <mxGeometry x="80" y="100" width="600" height="50" as="geometry" />
        </mxCell>
      </root>
    </mxGraphModel>
  </diagram>
</mxfile>
